<?xml version="1.0" standalone="no"?>
<!DOCTYPE svg PUBLIC "-//W3C//DTD SVG 20010904//EN"
 "http://www.w3.org/TR/2001/REC-SVG-20010904/DTD/svg10.dtd">
<svg version="1.0" xmlns="http://www.w3.org/2000/svg"
 width="1920.000000pt" height="933.000000pt" viewBox="0 0 1920.000000 933.000000"
 preserveAspectRatio="xMidYMid meet">

<g transform="translate(0.000000,933.000000) scale(0.100000,-0.100000)"
fill="#000000" stroke="none">
<path d="M8437 6182 c-33 -36 -8 -92 40 -92 25 0 53 30 53 57 0 46 -62 69 -93
35z m68 -37 c0 -27 -3 -30 -30 -30 -21 0 -31 5 -33 18 -6 33 6 49 35 45 24 -3
28 -8 28 -33z"/>
<path d="M8583 6174 c-15 -24 -15 -29 -2 -53 18 -32 54 -39 80 -15 24 22 24
56 1 77 -27 25 -59 21 -79 -9z m72 -29 c0 -25 -4 -31 -26 -33 -29 -3 -44 18
-33 50 4 14 13 18 32 16 23 -2 27 -8 27 -33z"/>
<path d="M8730 6145 c0 -30 5 -55 10 -55 6 0 10 9 10 19 0 12 8 21 21 23 55 8
44 68 -12 68 -28 0 -29 -1 -29 -55z m60 20 c0 -8 -9 -15 -20 -15 -11 0 -20 7
-20 15 0 8 9 15 20 15 11 0 20 -7 20 -15z"/>
<path d="M8862 6188 c-20 -20 -13 -39 18 -49 39 -14 38 -29 -1 -29 -17 0 -28
-4 -24 -10 9 -14 48 -13 63 2 20 20 13 39 -18 49 -36 13 -39 29 -5 29 14 0 25
5 25 10 0 14 -43 13 -58 -2z"/>
<path d="M8983 6160 c0 -25 2 -35 4 -22 2 12 2 32 0 45 -2 12 -4 2 -4 -23z"/>
<path d="M9110 6146 c0 -31 5 -56 10 -56 6 0 10 9 10 19 0 14 8 21 28 23 23 3
27 8 27 33 0 27 -3 30 -37 33 l-38 3 0 -55z m60 19 c0 -8 -9 -15 -20 -15 -11
0 -20 7 -20 15 0 8 9 15 20 15 11 0 20 -7 20 -15z"/>
<path d="M9243 6148 c-21 -55 -21 -70 -1 -50 15 15 58 16 58 2 0 -5 4 -10 9
-10 12 0 -22 103 -36 107 -5 2 -19 -20 -30 -49z m37 -3 c0 -8 -4 -15 -10 -15
-5 0 -10 7 -10 15 0 8 5 15 10 15 6 0 10 -7 10 -15z"/>
<path d="M9376 6187 c-24 -18 -24 -67 0 -84 26 -19 68 -13 72 11 5 25 -14 44
-30 28 -9 -9 -9 -12 0 -12 7 0 12 -5 12 -11 0 -6 -10 -9 -22 -7 -18 2 -23 10
-23 33 0 25 4 30 28 33 15 2 27 8 27 13 0 14 -44 11 -64 -4z"/>
<path d="M9500 6145 l0 -55 35 0 c19 0 35 5 35 10 0 6 -11 10 -25 10 -32 0
-34 27 -2 33 l22 4 -22 8 c-28 9 -30 25 -4 25 11 0 23 5 26 10 4 6 -8 10 -29
10 l-36 0 0 -55z"/>
<path d="M9680 6145 c0 -62 17 -75 22 -17 l3 37 25 -37 c14 -21 28 -38 33 -38
4 0 7 25 7 55 0 59 -17 76 -22 23 l-3 -33 -20 33 c-30 49 -45 41 -45 -23z"/>
<path d="M9833 6174 c-15 -24 -15 -29 -2 -53 18 -32 54 -39 80 -15 24 22 24
56 1 77 -27 25 -59 21 -79 -9z m72 -29 c0 -25 -4 -31 -26 -33 -29 -3 -44 18
-33 50 4 14 13 18 32 16 23 -2 27 -8 27 -33z"/>
<path d="M9970 6190 c0 -5 7 -10 15 -10 11 0 15 -12 15 -45 0 -25 5 -45 10
-45 6 0 10 20 10 45 0 33 4 45 15 45 8 0 15 5 15 10 0 6 -18 10 -40 10 -22 0
-40 -4 -40 -10z"/>
<path d="M10160 6145 c0 -30 5 -55 10 -55 6 0 10 11 10 24 0 18 7 26 23 29
l22 4 -22 8 c-31 10 -29 25 2 25 14 0 25 5 25 10 0 6 -16 10 -35 10 l-35 0 0
-55z"/>
<path d="M10286 6184 c-9 -8 -16 -26 -16 -39 0 -56 71 -73 99 -24 13 24 13 29
-2 53 -20 30 -57 35 -81 10z m69 -23 c10 -31 -5 -52 -34 -49 -26 3 -38 26 -27
54 8 21 53 18 61 -5z"/>
<path d="M10431 6160 c-1 -48 11 -70 40 -70 29 0 49 29 49 71 0 53 -18 50 -22
-3 -2 -36 -7 -44 -25 -46 -23 -3 -26 3 -36 68 -3 14 -5 5 -6 -20z"/>
<path d="M10570 6145 c0 -62 17 -75 22 -17 l3 37 23 -37 c13 -21 28 -38 33
-38 5 0 9 25 9 55 0 30 -4 55 -10 55 -5 0 -10 -15 -10 -32 l-1 -33 -27 33
c-15 18 -30 32 -34 32 -5 0 -8 -25 -8 -55z"/>
<path d="M10710 6145 l0 -55 34 0 c40 0 66 22 66 55 0 33 -26 55 -66 55 l-34
0 0 -55z m75 0 c0 -25 -4 -30 -27 -33 -26 -3 -28 -1 -28 33 0 34 2 36 28 33
23 -3 27 -8 27 -33z"/>
<path d="M9416 5944 c-227 -50 -401 -189 -509 -406 -135 -270 -139 -695 -9
-973 68 -146 172 -263 304 -343 221 -133 572 -134 789 -3 88 53 172 126 216
187 l38 54 398 0 397 0 0 -150 0 -150 290 0 290 0 0 150 0 150 120 0 120 0 0
230 0 230 -120 0 -120 0 0 135 0 135 -280 0 -280 0 0 -135 0 -135 -116 0 c-96
0 -115 2 -111 14 3 8 150 231 326 495 177 264 321 483 321 486 0 3 -136 5
-302 5 l-303 0 -372 -540 -373 -541 0 -189 0 -190 -40 0 -40 0 0 191 0 192
157 226 c86 124 158 233 160 242 7 24 -52 193 -92 263 -101 181 -261 309 -450
361 -87 24 -319 29 -409 9z m254 -474 c24 -12 49 -36 64 -62 45 -78 58 -142
63 -313 8 -249 -17 -374 -93 -452 l-43 -45 -67 4 c-64 4 -69 6 -104 46 -63 71
-90 190 -90 397 1 240 43 379 130 423 55 27 89 28 140 2z"/>
<path d="M7763 5378 l-373 -542 0 -188 0 -188 460 0 460 0 0 -150 0 -150 285
0 285 0 0 140 0 140 -45 87 c-81 158 -121 360 -113 564 l4 99 -203 0 -203 0 0
-135 0 -135 -115 0 c-63 0 -115 2 -115 5 0 3 149 228 330 500 l330 495 -307
-1 -308 0 -372 -541z"/>
<path d="M7193 3778 c2 -7 12 -39 21 -70 9 -32 21 -58 26 -58 5 0 17 26 26 58
l17 57 16 -54 c9 -30 21 -56 27 -58 6 -2 20 28 31 67 11 38 17 70 12 70 -11 0
-13 -6 -30 -70 l-11 -45 -17 54 c-9 30 -21 56 -28 58 -6 2 -16 -18 -24 -47
-12 -46 -29 -68 -29 -37 0 27 -22 87 -32 87 -5 0 -8 -6 -5 -12z"/>
<path d="M7400 3720 l0 -70 40 0 c22 0 40 5 40 10 0 6 -16 10 -35 10 -28 0
-35 4 -35 20 0 15 7 20 24 20 14 0 28 5 31 10 4 6 -7 10 -24 10 -24 0 -31 4
-31 20 0 16 7 20 35 20 19 0 35 5 35 10 0 6 -18 10 -40 10 l-40 0 0 -70z"/>
<path d="M7564 3733 c-26 -80 -27 -83 -16 -83 5 0 12 9 15 20 3 14 14 20 32
20 18 0 29 -6 32 -20 5 -19 23 -29 23 -12 0 21 -46 132 -56 132 -6 0 -19 -26
-30 -57z m46 -10 c0 -7 -7 -13 -15 -13 -16 0 -19 9 -9 35 5 13 8 14 15 3 5 -7
9 -19 9 -25z"/>
<path d="M7670 3720 c0 -40 4 -70 10 -70 6 0 10 11 10 25 0 18 5 25 18 25 11
0 24 -11 30 -25 6 -14 16 -25 22 -25 14 0 13 7 -5 34 -14 21 -14 24 0 36 34
28 3 70 -51 70 l-34 0 0 -70z m74 41 c11 -18 -6 -41 -30 -41 -19 0 -24 5 -24
25 0 20 5 25 24 25 14 0 27 -4 30 -9z"/>
<path d="M7800 3720 l0 -70 40 0 c22 0 40 5 40 10 0 6 -16 10 -35 10 -28 0
-35 4 -35 20 0 15 7 20 24 20 14 0 28 5 31 10 4 6 -7 10 -24 10 -24 0 -31 4
-31 20 0 16 7 20 35 20 19 0 35 5 35 10 0 6 -18 10 -40 10 l-40 0 0 -70z"/>
<path d="M7963 3784 c-7 -3 -13 -17 -13 -30 0 -19 8 -29 35 -40 47 -19 47 -44
-1 -44 -21 0 -33 -4 -29 -10 7 -11 45 -13 69 -4 9 3 16 17 16 31 0 18 -9 28
-35 39 -48 20 -48 48 0 42 22 -2 34 0 32 6 -4 12 -54 18 -74 10z"/>
<path d="M8080 3770 c-41 -41 -12 -120 44 -120 38 0 69 32 69 70 0 61 -71 92
-113 50z m92 -25 c17 -37 -3 -75 -40 -75 -35 0 -52 16 -52 50 0 34 17 50 52
50 21 0 32 -7 40 -25z"/>
<path d="M8220 3720 c0 -40 4 -70 10 -70 6 0 10 11 10 25 0 18 5 25 18 25 11
0 24 -11 30 -25 6 -14 16 -25 22 -25 6 0 5 11 -4 28 -12 23 -12 30 -1 46 25
34 0 66 -52 66 l-33 0 0 -70z m74 41 c11 -18 -6 -41 -30 -41 -19 0 -24 5 -24
25 0 20 5 25 24 25 14 0 27 -4 30 -9z"/>
<path d="M8340 3720 c0 -40 4 -70 10 -70 6 0 10 11 10 25 0 18 5 25 18 25 11
0 24 -11 30 -25 6 -14 16 -25 22 -25 6 0 5 11 -4 28 -12 23 -12 30 -1 46 25
34 0 66 -52 66 l-33 0 0 -70z m74 41 c11 -18 -6 -41 -30 -41 -19 0 -24 5 -24
25 0 20 5 25 24 25 14 0 27 -4 30 -9z"/>
<path d="M8450 3783 c0 -5 9 -21 20 -38 11 -16 20 -45 20 -62 0 -18 5 -33 10
-33 6 0 10 15 10 33 0 18 11 49 25 70 18 26 22 37 12 37 -8 0 -19 -11 -25 -25
-6 -14 -16 -25 -22 -25 -6 0 -16 11 -22 25 -10 23 -28 34 -28 18z"/>
<path d="M8650 3719 l0 -70 41 3 c50 4 71 27 52 58 -7 10 -10 26 -7 35 10 24
-15 45 -52 45 l-34 0 0 -71z m68 34 c-2 -10 -13 -19 -26 -21 -17 -3 -22 2 -22
17 0 16 6 21 26 21 19 0 25 -5 22 -17z m12 -63 c0 -16 -7 -20 -30 -20 -23 0
-30 4 -30 20 0 16 7 20 30 20 23 0 30 -4 30 -20z"/>
<path d="M8770 3742 c0 -60 21 -92 60 -92 18 0 34 8 44 22 18 25 22 118 6 118
-5 0 -10 -20 -10 -44 0 -62 -8 -76 -40 -76 -32 0 -40 14 -40 76 0 24 -4 44
-10 44 -5 0 -10 -21 -10 -48z"/>
<path d="M8910 3780 c0 -5 9 -10 20 -10 18 0 20 -7 20 -60 0 -33 4 -60 10 -60
6 0 10 27 10 60 0 46 3 60 14 60 8 0 18 5 21 10 4 6 -13 10 -44 10 -28 0 -51
-4 -51 -10z"/>
<path d="M9060 3780 c0 -5 9 -10 20 -10 18 0 20 -7 20 -60 0 -33 4 -60 10 -60
6 0 10 27 10 60 0 46 3 60 14 60 8 0 18 5 21 10 4 6 -13 10 -44 10 -28 0 -51
-4 -51 -10z"/>
<path d="M9180 3720 c0 -40 4 -70 10 -70 6 0 10 14 10 30 0 28 3 30 35 30 32
0 35 -2 35 -30 0 -16 5 -30 10 -30 6 0 10 30 10 70 0 40 -4 70 -10 70 -5 0
-10 -13 -10 -30 0 -28 -3 -30 -35 -30 -32 0 -35 2 -35 30 0 17 -4 30 -10 30
-6 0 -10 -30 -10 -70z"/>
<path d="M9320 3720 l0 -70 40 0 c22 0 40 5 40 10 0 6 -13 10 -30 10 -23 0
-30 4 -30 20 0 15 7 20 25 20 14 0 25 5 25 10 0 6 -11 10 -25 10 -18 0 -25 5
-25 20 0 16 7 20 30 20 17 0 30 5 30 10 0 6 -18 10 -40 10 l-40 0 0 -70z"/>
<path d="M9470 3720 c0 -40 4 -70 10 -70 6 0 10 11 10 25 0 20 5 25 24 25 27
0 56 24 56 45 0 24 -31 45 -66 45 l-34 0 0 -70z m75 25 c0 -14 -8 -21 -27 -23
-24 -3 -28 0 -28 23 0 23 4 26 28 23 19 -2 27 -9 27 -23z"/>
<path d="M9594 3733 c-26 -80 -27 -83 -16 -83 5 0 12 9 15 20 3 14 14 20 32
20 18 0 29 -6 32 -20 5 -19 23 -29 23 -12 0 21 -46 132 -56 132 -6 0 -19 -26
-30 -57z m46 -10 c0 -7 -7 -13 -15 -13 -16 0 -19 9 -9 35 5 13 8 14 15 3 5 -7
9 -19 9 -25z"/>
<path d="M9715 3765 c-30 -30 -31 -54 -4 -89 34 -43 99 -33 99 15 0 22 -5 29
-20 29 -11 0 -20 -4 -20 -10 0 -5 5 -10 10 -10 6 0 10 -7 10 -15 0 -10 -10
-15 -30 -15 -39 0 -59 37 -42 75 9 20 19 25 47 25 19 0 35 5 35 10 0 20 -61
10 -85 -15z"/>
<path d="M9840 3720 l0 -70 40 0 c22 0 40 5 40 10 0 6 -16 10 -35 10 -28 0
-35 4 -35 20 0 15 7 20 24 20 14 0 28 5 31 10 4 6 -7 10 -24 10 -24 0 -31 4
-31 20 0 16 7 20 35 20 19 0 35 5 35 10 0 6 -18 10 -40 10 l-40 0 0 -70z"/>
<path d="M9980 3783 c0 -5 9 -21 20 -38 11 -16 20 -45 20 -62 0 -18 5 -33 10
-33 6 0 10 15 10 33 0 18 11 49 25 70 18 26 22 37 12 37 -8 0 -19 -11 -25 -25
-6 -14 -16 -25 -22 -25 -6 0 -16 11 -22 25 -10 23 -28 34 -28 18z"/>
<path d="M10110 3770 c-43 -43 -11 -120 49 -120 32 0 71 39 71 70 0 10 -9 29
-21 44 -25 32 -70 35 -99 6z m92 -25 c17 -37 -3 -75 -40 -75 -35 0 -52 16 -52
50 0 34 17 50 52 50 21 0 32 -7 40 -25z"/>
<path d="M10250 3742 c0 -60 21 -92 60 -92 18 0 34 8 44 22 18 25 22 118 6
118 -5 0 -10 -20 -10 -44 0 -62 -8 -76 -40 -76 -32 0 -40 14 -40 76 0 24 -4
44 -10 44 -5 0 -10 -21 -10 -48z"/>
<path d="M10440 3720 c0 -40 4 -70 10 -70 6 0 10 11 10 25 0 18 5 25 18 25 11
0 24 -11 30 -25 6 -14 16 -25 22 -25 6 0 5 11 -4 28 -12 23 -12 30 -1 46 25
34 0 66 -52 66 l-33 0 0 -70z m74 41 c11 -18 -6 -41 -30 -41 -19 0 -24 5 -24
25 0 20 5 25 24 25 14 0 27 -4 30 -9z"/>
<path d="M10560 3720 l0 -70 45 0 c25 0 45 5 45 10 0 6 -16 10 -35 10 -28 0
-35 4 -35 20 0 15 7 20 24 20 14 0 28 5 31 10 4 6 -7 10 -24 10 -24 0 -31 4
-31 20 0 16 7 20 35 20 19 0 35 5 35 10 0 6 -20 10 -45 10 l-45 0 0 -70z"/>
<path d="M10689 3772 c-31 -26 -31 -78 1 -104 32 -26 92 -21 102 7 27 86 -39
148 -103 97z m79 -14 c7 -7 12 -25 12 -41 0 -23 -4 -28 -16 -23 -12 4 -15 2
-10 -9 4 -11 -2 -15 -25 -15 -22 0 -32 6 -39 25 -15 39 3 75 38 75 15 0 33 -5
40 -12z"/>
<path d="M10820 3742 c0 -59 21 -92 59 -92 42 0 61 28 61 88 0 71 -18 66 -22
-5 -3 -56 -4 -58 -32 -61 -36 -4 -46 10 -46 71 0 26 -4 47 -10 47 -5 0 -10
-21 -10 -48z"/>
<path d="M10970 3720 l0 -70 46 0 c27 0 43 4 39 10 -3 6 -19 10 -36 10 -22 0
-29 5 -29 20 0 15 7 20 25 20 14 0 25 5 25 10 0 6 -11 10 -25 10 -18 0 -25 5
-25 20 0 15 7 20 29 20 17 0 33 5 36 10 4 6 -12 10 -39 10 l-46 0 0 -70z"/>
<path d="M11093 3784 c-7 -3 -13 -17 -13 -30 0 -18 9 -28 36 -41 48 -23 48
-37 1 -41 -43 -4 -41 -22 3 -22 65 0 72 57 10 78 -17 6 -30 18 -30 28 0 13 7
15 35 12 22 -2 34 0 32 6 -4 12 -54 18 -74 10z"/>
<path d="M11190 3780 c0 -5 9 -10 20 -10 18 0 20 -7 20 -60 0 -33 4 -60 10
-60 6 0 10 27 10 60 0 46 3 60 14 60 8 0 18 5 21 10 4 6 -13 10 -44 10 -28 0
-51 -4 -51 -10z"/>
<path d="M11310 3720 l0 -70 40 0 c22 0 40 5 40 10 0 6 -16 10 -35 10 -28 0
-35 4 -35 20 0 15 7 20 24 20 14 0 28 5 31 10 4 6 -7 10 -24 10 -24 0 -31 4
-31 20 0 16 7 20 35 20 19 0 35 5 35 10 0 6 -18 10 -40 10 l-40 0 0 -70z"/>
<path d="M11420 3720 l0 -70 34 0 c47 0 79 29 79 70 0 41 -32 70 -79 70 l-34
0 0 -70z m90 25 c6 -16 6 -34 0 -50 -8 -20 -16 -25 -45 -25 l-35 0 0 50 0 50
35 0 c29 0 37 -5 45 -25z"/>
<path d="M11611 3723 c10 -38 19 -69 19 -71 0 -2 5 -2 11 0 7 2 19 28 28 58
l17 55 13 -50 c14 -51 26 -73 36 -63 12 11 43 138 34 138 -5 0 -14 -20 -20
-45 -6 -25 -15 -48 -19 -50 -5 -3 -13 18 -20 45 -7 28 -17 50 -24 50 -7 0 -18
-23 -25 -51 -15 -56 -22 -55 -40 9 -6 23 -16 42 -21 42 -5 0 0 -30 11 -67z"/>
<path d="M11801 3725 c-13 -36 -21 -69 -17 -72 4 -4 9 3 13 15 7 30 62 32 70
2 3 -11 10 -20 15 -20 6 0 8 6 5 13 -2 6 -13 38 -23 70 -10 31 -23 57 -29 57
-6 0 -22 -29 -34 -65z m48 -7 c1 -5 -6 -8 -14 -8 -16 0 -19 9 -8 36 6 16 7 16
14 -2 4 -10 8 -22 8 -26z"/>
<path d="M11923 3784 c-7 -3 -13 -17 -13 -30 0 -18 9 -28 36 -41 48 -23 48
-37 1 -41 -43 -4 -41 -22 3 -22 65 0 72 57 10 78 -17 6 -30 18 -30 28 0 13 7
15 35 12 22 -2 34 0 32 6 -4 12 -54 18 -74 10z"/>
<path d="M8563 3651 c0 -11 5 -17 9 -15 11 7 10 34 -1 34 -6 0 -9 -9 -8 -19z"/>
<path d="M9050 3440 c0 -81 18 -95 22 -18 l3 53 34 -53 c18 -28 37 -52 42 -52
5 0 9 32 9 70 0 40 -4 70 -10 70 -5 0 -10 -24 -10 -52 l0 -53 -35 53 c-20 28
-40 52 -45 52 -6 0 -10 -31 -10 -70z"/>
<path d="M9212 3494 c-16 -11 -22 -25 -22 -54 0 -29 6 -43 22 -54 48 -34 108
-4 108 54 0 58 -60 88 -108 54z m76 -16 c7 -7 12 -24 12 -38 0 -34 -17 -50
-52 -50 -31 0 -45 31 -34 75 5 19 13 25 34 25 15 0 33 -5 40 -12z"/>
<path d="M9330 3500 c0 -5 9 -10 20 -10 18 0 20 -7 20 -60 0 -33 4 -60 10 -60
6 0 10 27 10 60 0 53 2 60 20 60 11 0 20 5 20 10 0 6 -22 10 -50 10 -27 0 -50
-4 -50 -10z"/>
<path d="M9490 3440 c0 -40 4 -70 10 -70 6 0 10 14 10 30 0 25 4 30 25 30 14
0 25 5 25 10 0 6 -11 10 -25 10 -18 0 -25 5 -25 20 0 16 7 20 35 20 19 0 35 5
35 10 0 6 -20 10 -45 10 l-45 0 0 -70z"/>
<path d="M9610 3490 c-41 -41 -12 -120 44 -120 38 0 69 32 69 70 0 61 -71 92
-113 50z m92 -25 c17 -37 -3 -75 -40 -75 -35 0 -52 16 -52 50 0 34 17 50 52
50 21 0 32 -7 40 -25z"/>
<path d="M9750 3456 c0 -76 35 -105 91 -76 16 9 19 21 18 73 l-2 62 -6 -52
c-7 -60 -19 -76 -52 -71 -22 3 -24 9 -27 61 -4 72 -22 75 -22 3z"/>
<path d="M9902 3438 l1 -73 6 55 6 55 35 -52 c19 -29 38 -53 43 -53 4 0 7 32
7 70 0 78 -17 96 -22 23 l-3 -48 -30 47 c-16 27 -33 48 -37 48 -5 0 -7 -33 -6
-72z"/>
<path d="M10040 3440 l0 -70 39 0 c31 0 44 6 60 26 12 15 21 34 21 44 0 10 -9
29 -21 44 -16 20 -29 26 -60 26 l-39 0 0 -70z m92 25 c17 -38 -3 -75 -42 -75
-29 0 -30 1 -30 50 0 49 1 50 30 50 23 0 33 -6 42 -25z"/>
</g>
</svg>
